<svg width="65" height="53" viewBox="0 0 65 53" fill="none" xmlns="http://www.w3.org/2000/svg">
<g clip-path="url(#clip0_11066_2262)">
<path d="M36.1611 16.1406C36.1611 13.197 36.1611 10.2453 36.1611 7.3018C36.1611 7.15503 36.1694 7.00826 36.1776 6.85334C36.2187 6.30703 36.6466 5.77703 37.2883 5.63842C37.5681 5.58134 37.8561 5.57318 38.1276 5.65472C38.7035 5.82595 39.0573 6.20103 39.1643 6.79626C39.189 6.95934 39.1972 7.13057 39.1972 7.29365C39.1972 12.9687 39.1972 18.6438 39.1972 24.3189C39.1972 24.6124 39.1972 24.9141 39.1972 25.2076C39.189 25.6153 39.0491 25.9823 38.7529 26.2676C38.3415 26.6672 37.8478 26.8058 37.2883 26.659C36.7206 26.5123 36.3668 26.1372 36.2105 25.5746C36.1776 25.4604 36.1776 25.33 36.1694 25.2076C36.1611 25.0853 36.1694 24.963 36.1694 24.8407C36.1611 21.9461 36.1611 19.0433 36.1611 16.1406Z" fill="#006747"/>
<path d="M49.8607 34.0791C49.9348 34.022 49.9595 34.0057 49.9842 33.9812C50.6177 33.4268 51.3664 33.1169 52.2057 33.0272C52.8063 32.962 53.3905 33.0028 53.9582 33.174C55.2829 33.5572 56.1304 34.4297 56.5253 35.7343C56.6734 36.2072 56.7228 36.6965 56.7228 37.1857C56.731 38.5311 56.7228 39.8765 56.7228 41.23C56.7228 41.3197 56.7145 41.4012 56.6981 41.4909C56.6405 41.8008 56.4595 42.0209 56.1633 42.1188C55.8424 42.2329 55.538 42.1758 55.2747 41.9557C55.1019 41.8008 55.0196 41.6051 55.0031 41.3768C54.9949 41.2952 55.0031 41.2218 55.0031 41.1403C55.0031 39.8683 55.0031 38.6045 55.0031 37.3325C55.0031 36.9981 54.9867 36.672 54.9044 36.3458C54.6823 35.4571 54.1145 34.8945 53.2341 34.658C52.5924 34.4868 51.9424 34.4949 51.3088 34.7314C50.9715 34.8537 50.6753 35.0412 50.4202 35.294C50.0417 35.6772 49.8525 36.1338 49.8443 36.6638C49.8443 37.0634 49.8443 37.4711 49.8443 37.8706C49.8443 38.9632 49.8443 40.0558 49.8443 41.1485C49.8443 41.23 49.8443 41.3034 49.8443 41.3849C49.8443 41.7926 49.4987 42.2492 48.8652 42.1758C48.4373 42.1269 48.1576 41.8008 48.1411 41.3768C48.1411 41.2952 48.1411 41.2218 48.1411 41.1403C48.1411 37.52 48.1411 33.8997 48.1411 30.2794C48.1411 30.1897 48.1411 30.1081 48.1411 30.0185C48.1658 29.6271 48.4044 29.3417 48.7911 29.2601C48.9886 29.2194 49.1778 29.2275 49.3671 29.3091C49.6468 29.4314 49.8114 29.6515 49.8443 29.9532C49.8525 30.0511 49.8525 30.1489 49.8525 30.2386C49.8525 31.4291 49.8525 32.6195 49.8525 33.81C49.8607 33.8589 49.8607 33.9486 49.8607 34.0791Z" fill="#006747"/>
<path d="M4.04787 33.019C4.558 33.019 5.23268 33.1332 5.87445 33.4104C6.31053 33.598 6.69724 33.8507 7.01813 34.2014C7.10863 34.2992 7.19091 34.397 7.25673 34.5194C7.54471 35.033 7.10863 35.4734 6.72192 35.506C6.4504 35.5304 6.19534 35.4734 5.96496 35.3184C5.87445 35.2614 5.8004 35.188 5.71812 35.1227C5.41369 34.87 5.08458 34.6824 4.69787 34.6009C4.09724 34.4704 3.48838 34.4623 2.88775 34.6172C2.70673 34.6661 2.53395 34.7395 2.38585 34.8455C1.94154 35.1635 1.91686 35.8077 2.33648 36.1583C2.50104 36.2969 2.69028 36.3784 2.89597 36.46C3.258 36.5986 3.63648 36.6964 4.01496 36.7698C4.54977 36.884 5.08458 36.9981 5.59471 37.1857C5.93205 37.308 6.26116 37.4547 6.56559 37.6586C7.0099 37.9603 7.33078 38.3598 7.46243 38.8817C7.70926 39.8764 7.36369 40.8712 6.52445 41.4909C6.08015 41.817 5.58648 42.0127 5.05167 42.1106C3.79281 42.3307 2.57509 42.2003 1.3985 41.7029C0.970657 41.5235 0.583948 41.287 0.246606 40.969C0.0820489 40.806 -0.00845741 40.6103 0.0162261 40.382C0.024454 40.3086 0.0409097 40.227 0.0655932 40.1537C0.197239 39.8357 0.46053 39.6726 0.781416 39.5829C1.05294 39.5095 1.28331 39.6155 1.48901 39.7786C1.50547 39.7949 1.53015 39.8112 1.54661 39.8275C2.14724 40.4146 2.89597 40.6674 3.72699 40.7081C4.10547 40.7244 4.48395 40.7 4.8542 40.6021C5.08458 40.5369 5.30673 40.4472 5.49597 40.3004C5.97319 39.9254 6.01433 39.3057 5.57825 38.8817C5.42192 38.7349 5.24091 38.6289 5.04344 38.5392C4.65673 38.368 4.24534 38.262 3.83395 38.1804C3.3485 38.0826 2.87129 37.9847 2.4023 37.8135C1.99914 37.6667 1.62066 37.4955 1.28331 37.2346C0.888378 36.9329 0.583948 36.5578 0.476986 36.0686C0.287745 35.2614 0.452302 34.5438 1.06939 33.9486C1.41496 33.6143 1.83458 33.3941 2.29534 33.2474C2.77256 33.0843 3.28268 33.0109 4.04787 33.019Z" fill="#006747"/>
<path d="M12.2099 39.5421C12.2675 39.428 12.3004 39.3464 12.3416 39.273C13.1726 37.4221 14.0036 35.5712 14.8346 33.7121C14.8675 33.6306 14.9004 33.549 14.9498 33.4757C15.1555 33.1087 15.4353 33.0272 15.822 33.1087C15.9454 33.1332 16.0523 33.1903 16.1593 33.2555C16.4391 33.4267 16.546 33.6877 16.4555 33.9975C16.4144 34.128 16.365 34.2584 16.3074 34.3889C15.5011 36.1827 14.6948 37.9766 13.8884 39.7786C13.0163 41.7192 12.1441 43.6598 11.2802 45.6004C11.2555 45.6656 11.2226 45.7309 11.1815 45.788C11.0251 46.0489 10.7865 46.1549 10.4821 46.106C10.3011 46.0733 10.1283 46 9.98019 45.8858C9.74981 45.7064 9.65931 45.4781 9.73336 45.1927C9.75804 45.103 9.79095 45.0133 9.83209 44.9237C10.3422 43.7821 10.8523 42.6406 11.3707 41.499C11.3872 41.4664 11.3954 41.4338 11.4118 41.4012C11.4777 41.3033 11.4612 41.2137 11.4036 41.1077C11.0745 40.488 10.7454 39.8683 10.4163 39.2567C9.55235 37.626 8.68019 35.9952 7.81627 34.3644C7.78336 34.2992 7.75045 34.2421 7.71754 34.1769C7.44602 33.6061 7.93146 33.1495 8.3264 33.1006C8.69665 33.0598 8.95994 33.1821 9.14095 33.5083C9.29728 33.8018 9.44538 34.1035 9.59349 34.397C10.4245 36.036 11.2555 37.6749 12.0865 39.3138C12.1194 39.379 12.1523 39.4443 12.2099 39.5421Z" fill="#006747"/>
<path d="M28.6246 34.1932C28.7069 34.1117 28.748 34.0709 28.7974 34.022C29.505 33.3452 30.3525 33.0109 31.3234 32.9783C31.6854 32.9701 32.0474 32.9946 32.4012 33.0843C32.648 33.1495 32.8867 33.2474 33.0759 33.4267C33.3227 33.6469 33.3803 33.9323 33.2322 34.234C33.117 34.4786 32.9113 34.6009 32.6398 34.6009C32.4423 34.6009 32.2531 34.552 32.0639 34.5194C31.4879 34.4297 30.9202 34.4215 30.3525 34.552C30.0151 34.6335 29.6942 34.7558 29.4145 34.9515C28.8879 35.3103 28.6246 35.8077 28.6082 36.4355C28.6082 36.5904 28.6082 36.7535 28.6082 36.9084C28.6082 38.319 28.6082 39.7215 28.6082 41.1321C28.6082 41.2381 28.6082 41.3441 28.5999 41.4501C28.567 41.8334 28.3284 42.0698 27.9417 42.1187C27.8101 42.135 27.6784 42.135 27.5468 42.1106C27.2177 42.0617 27.0037 41.8497 26.9544 41.5317C26.9379 41.4175 26.9297 41.3034 26.9297 41.1892C26.9297 38.8001 26.9297 36.411 26.9297 34.022C26.9297 33.916 26.9379 33.81 26.9461 33.704C26.9873 33.386 27.1765 33.174 27.4892 33.1006C27.6784 33.0517 27.8759 33.0517 28.0651 33.1006C28.3778 33.174 28.5588 33.386 28.5917 33.7121C28.6164 33.867 28.6164 33.9975 28.6246 34.1932Z" fill="#006747"/>
<path d="M35.9557 37.6097C35.9557 38.792 35.9557 39.9743 35.9557 41.1484C35.9557 41.2544 35.9557 41.3604 35.931 41.4583C35.857 41.8578 35.5772 42.1024 35.1658 42.1269C34.9519 42.1432 34.7462 42.1024 34.5652 41.9638C34.3513 41.8008 34.2525 41.5888 34.2361 41.336C34.2279 41.2626 34.2361 41.1974 34.2361 41.124C34.2361 38.7757 34.2361 36.4192 34.2361 34.0709C34.2361 33.9404 34.2361 33.81 34.269 33.6795C34.3019 33.5409 34.376 33.4186 34.4747 33.3208C34.7873 32.9946 35.3797 33.0272 35.643 33.2392C35.7829 33.3534 35.8816 33.492 35.9228 33.6714C35.9557 33.8018 35.9557 33.9323 35.9557 34.0628C35.9557 35.2532 35.9557 36.4274 35.9557 37.6097Z" fill="#006747"/>
<path d="M51.3989 49.0087C51.3989 48.4869 51.3989 47.9569 51.3989 47.435C51.3989 47.3698 51.3989 47.3127 51.3989 47.2475C51.3989 47.1823 51.4318 47.1497 51.4894 47.1497C51.7527 47.1497 52.016 47.1497 52.2875 47.1497C52.3451 47.1497 52.3863 47.166 52.4027 47.2312C52.4109 47.2638 52.4439 47.272 52.4603 47.2638C52.5097 47.2475 52.5591 47.223 52.6084 47.1986C53.028 47.0273 53.4477 47.011 53.8755 47.1578C54.4185 47.3453 54.7312 47.7286 54.797 48.2912C54.8217 48.5277 54.8217 48.7641 54.8217 49.0006C54.8299 49.555 54.8217 50.1013 54.8299 50.6558C54.8299 50.6966 54.8299 50.7455 54.8299 50.7863C54.8299 50.8515 54.8053 50.8841 54.7394 50.8923C54.723 50.8923 54.7065 50.8923 54.6901 50.8923C54.4515 50.8923 54.2128 50.8923 53.9742 50.8923C53.8508 50.8923 53.8426 50.8841 53.8426 50.7537C53.8426 50.6884 53.8426 50.6313 53.8426 50.5661C53.8426 49.9383 53.8426 49.3104 53.8344 48.6744C53.8344 48.5766 53.8344 48.4869 53.8015 48.389C53.7521 48.226 53.6369 48.12 53.4806 48.0629C53.2584 47.9813 53.028 47.9977 52.8059 48.0792C52.5673 48.1689 52.4521 48.3646 52.411 48.601C52.3945 48.6989 52.3945 48.7967 52.3945 48.8864C52.3945 49.4246 52.3945 49.9709 52.3945 50.509C52.3945 50.6069 52.3945 50.7047 52.3945 50.7944C52.3945 50.8433 52.3698 50.876 52.3204 50.876C52.0489 50.876 51.7774 50.8841 51.4977 50.8841C51.4318 50.8841 51.3989 50.8515 51.3989 50.7863C51.3989 50.6558 51.3989 50.5253 51.3989 50.3949C51.3989 49.9383 51.3989 49.4735 51.3989 49.0087Z" fill="#006747"/>
<path d="M48.0093 50.4438C48.1327 50.2726 48.2561 50.0932 48.3878 49.9219C48.4289 49.8649 48.47 49.8159 48.5194 49.7507C48.6264 49.8159 48.7169 49.873 48.8156 49.9301C49.0542 50.0606 49.3011 50.1421 49.5726 50.1176C49.6466 50.1095 49.7124 50.0932 49.77 50.0606C49.9099 49.979 49.9346 49.8159 49.8276 49.7018C49.7618 49.6284 49.6713 49.5876 49.5808 49.5469C49.4327 49.4816 49.2846 49.4327 49.1365 49.3756C48.9555 49.3022 48.7827 49.2207 48.6264 49.1066C47.9352 48.6255 48.0998 47.7204 48.6675 47.3535C48.8403 47.2393 49.0295 47.1659 49.227 47.1333C49.8523 47.0273 50.42 47.1578 50.9219 47.5329C50.9384 47.541 50.9466 47.5573 50.9631 47.5899C50.7985 47.8101 50.634 48.0302 50.4776 48.2504C50.3789 48.2667 50.3378 48.2015 50.2802 48.1689C50.1321 48.0873 49.984 48.0139 49.8194 47.9813C49.6878 47.9569 49.5561 47.9569 49.4327 48.0139C49.2764 48.0873 49.2517 48.2667 49.3751 48.3809C49.4327 48.4379 49.5067 48.4706 49.5808 48.5032C49.7124 48.5521 49.8441 48.601 49.9757 48.6499C50.165 48.7152 50.3542 48.7967 50.527 48.9027C51.1935 49.3186 51.1194 50.1747 50.6916 50.5824C50.5352 50.7292 50.3542 50.8352 50.1485 50.9004C49.3833 51.1287 48.684 50.9738 48.0422 50.5172C48.034 50.4927 48.0257 50.4682 48.0093 50.4438Z" fill="#006747"/>
<path d="M36.2025 30.5158C36.219 31.1273 35.6677 31.6166 35.0918 31.6166C34.5405 31.6166 33.9893 31.1437 33.9893 30.4995C33.9975 29.9124 34.5158 29.415 35.0918 29.415C35.6842 29.415 36.219 29.9287 36.2025 30.5158Z" fill="#006747"/>
<path d="M57.0352 47.0926C56.7307 47.0273 56.4427 46.9702 56.1465 46.9132C56.0149 46.8887 55.9984 46.8887 55.9326 47.0029C55.8997 47.0518 55.8668 47.1089 55.8421 47.1578C55.7352 47.3453 55.6282 47.541 55.513 47.7285C55.4801 47.7775 55.4636 47.8509 55.3814 47.8346C55.2908 47.8264 55.3073 47.753 55.2991 47.6959C55.2662 47.4187 55.2332 47.1415 55.2003 46.8642C55.1839 46.7338 55.1674 46.7175 55.044 46.693C54.7807 46.6359 54.5092 46.587 54.2459 46.5299C54.213 46.5218 54.1719 46.5218 54.139 46.5055C54.106 46.4973 54.0731 46.4729 54.0814 46.4321C54.0814 46.4076 54.0978 46.375 54.1143 46.3669C54.1636 46.3342 54.2212 46.3098 54.2788 46.2772C54.501 46.1793 54.7314 46.0733 54.9535 45.9755C55.1016 45.9102 55.1016 45.8939 55.0851 45.7309C55.0522 45.4781 55.0276 45.2253 54.9946 44.9807C54.9864 44.9318 54.9864 44.8747 54.9946 44.8258C54.9946 44.785 55.0687 44.7524 55.1016 44.7769C55.1345 44.8013 55.1674 44.8339 55.2003 44.8666C55.3402 45.0215 55.4883 45.1764 55.6282 45.3313C55.8915 45.6086 55.8092 45.5922 56.1465 45.4455C56.3029 45.3721 56.4674 45.2987 56.6238 45.2253C56.6567 45.209 56.6896 45.1927 56.7225 45.1846C56.7883 45.1682 56.8459 45.0949 56.9117 45.1601C56.9858 45.2335 56.9035 45.2824 56.8788 45.3476C56.8624 45.3884 56.8377 45.421 56.813 45.4618C56.7225 45.6249 56.6238 45.7798 56.5415 45.9429C56.3934 46.2201 56.3687 46.1467 56.5826 46.3832C56.7225 46.5299 56.8541 46.6767 56.994 46.8235C57.0351 46.8724 57.0763 46.9132 57.1174 46.9621C57.1421 46.9866 57.1586 47.0192 57.1339 47.0599C57.1174 47.0926 57.0763 47.1007 57.0352 47.0926Z" fill="#006747"/>
<path d="M40.5961 46.5463C40.629 46.5381 40.6455 46.53 40.662 46.53C41.0569 46.53 40.9582 46.4729 41.0898 46.8072C41.279 47.2883 41.4683 47.7693 41.6493 48.2423C41.7233 48.2341 41.7316 48.177 41.748 48.1363C41.9208 47.6796 42.1018 47.223 42.2746 46.7664C42.2993 46.7093 42.3158 46.6523 42.3404 46.5952C42.3569 46.5544 42.398 46.53 42.4392 46.53C42.5379 46.53 42.6284 46.5136 42.7271 46.5463C42.7436 46.6115 42.7025 46.6686 42.6778 46.7256C42.2828 47.6878 41.8797 48.6418 41.4847 49.604C41.3942 49.8241 41.4107 49.7996 41.1721 49.7996C41.1309 49.7996 41.0816 49.7997 41.0487 49.7752C41.0322 49.7181 41.0651 49.6773 41.0816 49.6284C41.1803 49.392 41.2626 49.1555 41.3695 48.9272C41.4354 48.7886 41.4271 48.6663 41.3695 48.5276C41.1227 47.9487 40.8841 47.3698 40.6537 46.7827C40.6373 46.7093 40.5879 46.6441 40.5961 46.5463Z" fill="#006747"/>
<path d="M16.217 17.013C16.036 15.8633 15.641 14.7952 14.991 13.833C13.5511 11.7048 11.5682 10.5307 8.96 10.4573C8.2195 10.4328 7.49545 10.5062 6.78785 10.7019C5.43848 11.077 4.29481 11.7945 3.33215 12.7975C3.2581 12.8708 3.18405 12.9524 3.07709 13.0665C3.05241 12.9524 3.06064 12.8872 3.06064 12.8138C3.06064 12.3082 3.06064 11.8027 3.06064 11.289C3.06064 9.94362 3.06064 8.59823 3.06064 7.24469C3.06064 7.08162 3.06064 6.91039 3.0195 6.74731C2.8714 6.10316 2.28722 5.61393 1.60431 5.59762C0.880256 5.57316 0.296079 6.02977 0.0986106 6.66577C0.0410156 6.86146 0.0410156 7.05716 0.0410156 7.261C0.0410156 11.0199 0.0410156 14.7788 0.0410156 18.5459C0.0410156 19.2064 0.106838 19.8587 0.263168 20.4947C0.715699 22.4353 1.73595 24.0172 3.35684 25.2076C4.52519 26.0638 5.84165 26.5448 7.28975 26.6835C7.79165 26.7324 8.29355 26.7324 8.79545 26.6998C9.58532 26.6508 10.3505 26.5041 11.091 26.235C13.7815 25.2728 16.036 22.7288 16.3075 19.3776C16.3733 18.5867 16.3404 17.7958 16.217 17.013ZM12.0784 22.3293C11.2473 23.2915 10.1942 23.8622 8.91886 24.0253C7.91507 24.1476 6.94418 24.0498 6.02266 23.6258C4.73089 23.0387 3.85874 22.0602 3.34038 20.7556C3.10177 20.1604 2.97836 19.5325 2.9619 18.8884C2.93722 18.1382 2.98659 17.4044 3.23342 16.6868C3.80114 15.0316 4.90367 13.8901 6.58215 13.3356C7.29798 13.0992 8.03026 13.0584 8.77899 13.1236C11.0746 13.3275 12.8682 15.1376 13.3125 17.2576C13.403 17.6898 13.436 18.1219 13.4442 18.4807C13.4277 19.9728 13.0163 21.2448 12.0784 22.3293Z" fill="#006747"/>
<path d="M33.9149 16.8499C33.5364 15.0072 32.6231 13.4824 31.175 12.2756C29.7845 11.1178 28.1637 10.5225 26.3453 10.4573C25.2345 10.4165 24.1485 10.547 23.0871 10.9139C20.339 11.8842 18.0681 14.4282 17.8048 17.8365C17.7472 18.5948 17.7719 19.3532 17.8871 20.1115C18.0434 21.0981 18.3561 22.0276 18.8497 22.9001C19.5902 24.2047 20.6187 25.2239 21.9599 25.9252C22.8402 26.3818 23.7782 26.6264 24.7656 26.6916C25.4814 26.7405 26.1972 26.7079 26.8966 26.5612C28.3282 26.2676 29.5542 25.599 30.5497 24.5308C30.6978 24.3678 30.8459 24.2047 31.0023 24.0253C31.0516 24.115 31.0352 24.1884 31.0352 24.2536C31.0352 24.5635 31.0269 24.8652 31.0352 25.175C31.0516 25.6968 31.2738 26.1208 31.7263 26.4062C32.0225 26.5938 32.3434 26.6508 32.689 26.6264C33.4213 26.5693 33.8902 26.0638 34.0219 25.5012C34.0548 25.3544 34.0548 25.2076 34.0548 25.0608C34.0548 22.9001 34.0548 20.7393 34.0548 18.5785C34.0795 17.9915 34.0301 17.4207 33.9149 16.8499ZM30.4016 21.5465C29.7105 22.7044 28.7314 23.4953 27.4232 23.8704C26.7156 24.0742 25.9997 24.1068 25.2757 24.0253C23.1035 23.7888 21.2687 22.101 20.8162 19.8505C20.5776 18.6764 20.6434 17.5104 21.0877 16.3933C21.6719 14.9501 22.6921 13.9227 24.1814 13.3845C24.9548 13.1073 25.7611 13.0339 26.5757 13.1236C27.5466 13.2296 28.4187 13.5802 29.1757 14.1918C30.1054 14.9419 30.6896 15.9041 30.9858 17.0538C31.1175 17.5675 31.1668 18.0078 31.1668 18.7172C31.1833 19.6467 30.9447 20.6415 30.4016 21.5465Z" fill="#006747"/>
<path d="M56.7227 17.9344C56.698 17.6001 56.6897 17.274 56.6486 16.9397C56.5416 16.0672 56.303 15.2273 55.941 14.4283C55.291 13.0177 54.2872 11.9413 52.8967 11.2238C52.041 10.7835 51.1195 10.5552 50.1568 10.4818C49.1942 10.4084 48.2315 10.4492 47.2853 10.6775C45.6151 11.077 44.2246 11.9169 43.1467 13.246C42.0195 14.6158 41.4847 16.214 41.3859 17.9589C41.353 18.5215 41.3613 19.076 41.4189 19.6386C41.5094 20.4621 41.6904 21.2612 42.0359 22.0113C43.1303 24.4086 45.0062 25.86 47.5651 26.4797C48.1822 26.6264 48.8157 26.6917 49.4492 26.7161C49.9923 26.7406 50.5271 26.6998 51.0619 26.6183C51.8765 26.4878 52.6581 26.2432 53.4233 25.9415C53.8429 25.7784 54.2461 25.5827 54.6163 25.3218C54.7644 25.2158 54.9208 25.1098 55.0606 24.9875C55.4309 24.6369 55.5461 24.2129 55.4309 23.7237C55.2663 23.0143 54.4271 22.5006 53.6043 22.8757C53.4397 22.949 53.2752 23.0469 53.1189 23.1366C52.8885 23.267 52.6663 23.4057 52.4277 23.528C51.7859 23.8623 51.1113 24.0824 50.3954 24.1558C49.7701 24.221 49.1448 24.1966 48.5277 24.0743C47.4746 23.8786 46.5613 23.422 45.7714 22.7044C44.9651 21.9624 44.4385 21.0655 44.2246 19.9892C44.1423 19.557 44.1505 19.6304 44.529 19.6304C46.2733 19.6304 48.0258 19.6304 49.7701 19.6304C51.5144 19.6304 53.267 19.6304 55.0113 19.6304C55.0935 19.6304 55.1676 19.6304 55.2499 19.6304C55.8916 19.606 56.4758 19.1738 56.6486 18.5378C56.7227 18.334 56.7391 18.1383 56.7227 17.9344ZM53.7277 17.274C52.1727 17.274 50.6176 17.274 49.0708 17.274C47.5568 17.274 46.0347 17.274 44.5208 17.274C44.4385 17.274 44.3644 17.274 44.2822 17.274C44.2163 17.274 44.1916 17.2413 44.1999 17.168C44.3891 16.1895 44.7594 15.2926 45.4505 14.5506C46.117 13.8249 46.9397 13.352 47.9024 13.1318C48.6923 12.9524 49.4904 12.9117 50.2967 13.0421C51.5309 13.246 52.4771 13.8983 53.16 14.9257C53.522 15.472 53.7359 16.0835 53.884 16.7113C53.9087 16.8173 53.9252 16.9152 53.9499 17.0212C54.0075 17.2903 54.0075 17.274 53.7277 17.274Z" fill="#006747"/>
<path d="M46.6108 37.6505C46.6108 37.3406 46.5861 37.0389 46.5285 36.7372C46.2323 35.2206 45.3848 34.1035 43.9779 33.4349C43.0892 33.0109 42.143 32.9212 41.1886 33.0843C39.5348 33.3778 38.3747 34.2992 37.7247 35.8485C37.519 36.3458 37.4203 36.8677 37.4038 37.4058C37.3791 38.1234 37.4696 38.8165 37.7329 39.4851C38.4734 41.3523 40.2424 42.4041 42.1677 42.1758C42.9905 42.078 43.7146 41.7763 44.3481 41.2545C44.5291 41.1077 44.6854 40.9446 44.8747 40.7408C44.8994 40.9283 44.8911 41.0669 44.8911 41.2055C44.8911 41.3115 44.8911 41.4175 44.9158 41.5154C45.0063 41.9068 45.3437 42.1677 45.7633 42.1595C46.1747 42.1514 46.4956 41.8905 46.5779 41.5072C46.6025 41.3931 46.6025 41.2789 46.6025 41.1648C46.6108 39.9988 46.6108 38.8246 46.6108 37.6505ZM44.3728 39.5095C43.8133 40.2678 43.0563 40.6674 42.1019 40.7081C40.4975 40.7652 39.3127 39.5911 39.0905 38.2294C38.9589 37.4303 39.0576 36.6638 39.4772 35.9545C39.9133 35.2206 40.5468 34.7477 41.3861 34.5765C42.9905 34.2585 44.3892 35.1717 44.8253 36.6557C44.9158 36.9655 44.9405 37.2917 44.957 37.5526C44.957 38.3028 44.7924 38.9469 44.3728 39.5095Z" fill="#006747"/>
<path d="M25.3907 37.6015C25.3907 37.3406 25.3742 37.0796 25.3331 36.8187C25.0534 35.2858 24.2223 34.1524 22.8154 33.4593C21.7951 32.9538 20.7008 32.8804 19.6148 33.1658C17.8705 33.6224 16.7679 34.7476 16.3154 36.4844C16.1344 37.1856 16.1426 37.9113 16.2742 38.6207C16.4306 39.485 16.7926 40.2596 17.4015 40.8956C18.4299 41.9801 19.7053 42.3796 21.178 42.1595C22.0996 42.0209 22.873 41.5969 23.5148 40.9201C23.5559 40.8793 23.597 40.8304 23.6546 40.7815C23.6793 40.8059 23.6875 40.8141 23.6875 40.8222C23.6875 40.9935 23.6875 41.1729 23.6958 41.3441C23.7122 41.7762 23.9837 42.0942 24.4116 42.1595C24.9711 42.2492 25.3989 41.8415 25.3989 41.3849C25.3989 41.3359 25.3989 41.2789 25.3989 41.2299C25.3907 40.015 25.3907 38.8082 25.3907 37.6015ZM23.3008 39.3056C22.7496 40.1944 21.935 40.6673 20.8736 40.7081C19.3186 40.757 18.142 39.6399 17.8951 38.3109C17.7388 37.4955 17.8293 36.7045 18.2489 35.9789C18.6768 35.2369 19.3186 34.7476 20.166 34.5764C21.6635 34.2747 23.054 35.0493 23.5641 36.5007C23.6875 36.8513 23.7451 37.2182 23.7369 37.683C23.7534 38.2293 23.6217 38.7919 23.3008 39.3056Z" fill="#006747"/>
<path d="M47.8613 48.3727C47.4088 47.0192 45.9278 46.8316 45.1297 47.3372C45.0967 47.3616 45.0638 47.3942 44.998 47.3698C44.998 47.3209 44.9898 47.2556 44.9898 47.1985C44.9898 46.8072 44.9898 46.4158 44.9898 46.0162C44.9898 45.951 44.9898 45.8939 44.9898 45.8287C44.9898 45.7798 44.9651 45.739 44.9157 45.739C44.6442 45.739 44.3727 45.739 44.0929 45.739C44.0436 45.739 44.0107 45.7716 44.0107 45.8206C44.0024 45.8939 44.0024 45.9592 44.0024 46.0326C44.0024 46.4647 44.0107 46.8887 44.0107 47.3209C44.0189 48.4379 44.0189 49.555 44.0271 50.6802C44.0271 50.7292 44.0271 50.7862 44.0271 50.8352C44.0354 50.8841 44.06 50.9167 44.1176 50.9167C44.3316 50.9167 44.5373 50.9167 44.7512 50.9167C44.9898 50.9167 44.9898 50.9086 45.0309 50.6966C45.0885 50.6884 45.1297 50.7292 45.1708 50.7536C45.9771 51.2184 47.2278 50.9982 47.7543 49.9709C48.0094 49.4572 48.0423 48.919 47.8613 48.3727ZM45.9936 50.0279C45.4176 50.0361 44.9898 49.5958 44.998 49.025C45.0062 48.3564 45.5575 48.0221 45.9854 48.0384C46.4379 48.0139 46.9891 48.3646 46.9809 49.0413C46.9809 49.5958 46.5695 50.0279 45.9936 50.0279Z" fill="#006747"/>
<path d="M40.3247 47.378C40.2588 46.9866 40.0449 46.6931 39.6664 46.5544C39.2797 46.4158 38.9177 46.4647 38.5968 46.7338C38.5557 46.7664 38.5392 46.8154 38.4734 46.8154C38.424 46.7746 38.4487 46.7175 38.4487 46.6686C38.4487 46.4403 38.4487 46.212 38.4487 45.9837C38.4487 45.7228 38.4487 45.7227 38.1854 45.7309C38.1772 45.7309 38.169 45.7309 38.1607 45.7309C38.0949 45.7309 38.062 45.7717 38.062 45.8288C38.062 45.9103 38.062 45.9837 38.062 46.0652C38.062 46.9051 38.062 47.7449 38.062 48.5847C38.062 48.7234 38.0785 48.7397 38.2101 48.7397C38.243 48.7397 38.2842 48.7397 38.3171 48.7397C38.424 48.7315 38.4405 48.7152 38.4487 48.6174C38.4569 48.5603 38.4323 48.4951 38.4734 48.438C38.531 48.4298 38.5475 48.4788 38.5804 48.5032C39.0164 48.9435 39.9956 48.8783 40.2835 48.0548C40.3494 47.8509 40.3658 47.6144 40.3247 47.378ZM39.9051 47.9406C39.7981 48.2668 39.5266 48.4543 39.1892 48.4543C38.8519 48.4543 38.5639 48.226 38.4734 47.8998C38.424 47.7204 38.424 47.5329 38.4816 47.3535C38.5886 47.0029 38.893 46.7991 39.2633 46.8235C39.6088 46.848 39.8721 47.0763 39.938 47.4514C39.9462 47.5084 39.9462 47.5737 39.9544 47.6063C39.9544 47.7367 39.938 47.8428 39.9051 47.9406Z" fill="#006747"/>
<path d="M64.5966 10.3024C63.5188 10.0823 62.4738 9.87026 61.4289 9.65826C60.9435 9.56041 60.9188 9.56857 60.6637 9.97626C60.5485 10.1638 60.4416 10.3513 60.3346 10.547C59.9479 11.2238 59.5612 11.9006 59.1745 12.5773C59.0675 12.7649 58.9852 13.0013 58.7055 12.9687C58.3928 12.928 58.4422 12.667 58.4175 12.4632C58.2941 11.4766 58.1789 10.4818 58.0637 9.49518C58.0061 9.03857 57.9485 8.96518 57.5042 8.87549C56.5498 8.6798 55.5954 8.49226 54.6409 8.30472C54.5175 8.28026 54.3859 8.27211 54.2707 8.23134C54.1555 8.19057 54.0403 8.10088 54.0568 7.96226C54.065 7.88072 54.1061 7.76657 54.1637 7.7258C54.3447 7.60349 54.5422 7.50564 54.7397 7.41595C55.5378 7.04903 56.3441 6.69841 57.1422 6.33149C57.6605 6.09503 57.6688 6.04611 57.603 5.46718C57.496 4.57026 57.389 3.67334 57.2903 2.77641C57.2656 2.58888 57.2738 2.40134 57.2821 2.2138C57.2903 2.07518 57.5371 1.96918 57.6523 2.05072C57.7757 2.14041 57.8992 2.24641 58.0061 2.36057C58.5162 2.90688 59.0264 3.46949 59.5365 4.0158C60.4745 5.01057 60.1783 4.96164 61.396 4.41534C61.9719 4.16257 62.5397 3.90164 63.1074 3.64072C63.2226 3.5918 63.3295 3.51841 63.453 3.4858C63.6833 3.42872 63.8973 3.15964 64.1441 3.39611C64.4074 3.64072 64.1194 3.84457 64.0371 4.05657C63.9795 4.20334 63.8808 4.32564 63.8068 4.46426C63.4776 5.03503 63.1403 5.59764 62.8359 6.17657C62.3093 7.15503 62.2106 6.89411 62.984 7.74211C63.4694 8.27211 63.9631 8.80211 64.4485 9.32395C64.5966 9.48703 64.7447 9.64195 64.8846 9.81318C64.9587 9.91103 65.0327 10.017 64.9587 10.1475C64.8764 10.2861 64.7365 10.3269 64.5966 10.3024Z" fill="#00BB31"/>
</g>
<defs>
<clipPath id="clip0_11066_2262">
<rect width="65" height="48.9802" fill="white" transform="translate(0 2.00995)"/>
</clipPath>
</defs>
</svg>
